<?xml version="1.0" encoding="UTF-8"?>
<!-- Created with Inkscape (http://www.inkscape.org/) -->
<svg width="324.92mm" height="235.28mm" version="1.1" viewBox="0 0 324.92 235.28" xmlns="http://www.w3.org/2000/svg">
 <g transform="translate(73.088 -99.866)" fill-opacity=".10398" stroke="#000" stroke-linejoin="round" stroke-width="26.667">
  <path transform="matrix(.10613 0 0 .10613 58.466 269.25)" d="m-846.87-49.453-379.36-219.02v-438.05l379.36-219.02 379.36 219.02 1e-5 438.05z" fill="#ff0101" style="font-variation-settings:'wght' 500"/>
  <path transform="matrix(.10613 0 0 .10613 219.51 269.25)" d="m-846.87-49.453-379.36-219.02v-438.05l379.36-219.02 379.36 219.02 1e-5 438.05z" fill="#04fc66" style="font-variation-settings:'wght' 500"/>
  <path transform="matrix(.10613 0 0 .10613 179.25 338.98)" d="m-846.87-49.453-379.36-219.02v-438.05l379.36-219.02 379.36 219.02 1e-5 438.05z" fill="#ff8701" style="font-variation-settings:'wght' 500"/>
  <path transform="matrix(.10613 0 0 .10613 300.03 269.25)" d="m-846.87-49.453-379.36-219.02v-438.05l379.36-219.02 379.36 219.02 1e-5 438.05z" fill="#1203fd" style="font-variation-settings:'wght' 500"/>
  <path transform="matrix(.10613 0 0 .10613 98.727 199.51)" d="m-846.87-49.453-379.36-219.02v-438.05l379.36-219.02 379.36 219.02 1e-5 438.05z" fill="#e818d1" style="font-variation-settings:'wght' 500"/>
  <path transform="matrix(.10613 0 0 .10613 138.99 269.25)" d="m-846.87-49.453-379.36-219.02v-438.05l379.36-219.02 379.36 219.02 1e-5 438.05z" fill="#ffff01" style="font-variation-settings:'wght' 500"/>
 </g>
</svg>
